<?xml version="1.0" encoding="UTF-8"?>
<svg width="20px" height="34px" viewBox="0 0 20 34" version="1.1" xmlns="http://www.w3.org/2000/svg" xmlns:xlink="http://www.w3.org/1999/xlink">
    <!-- Generator: Sketch 53.1 (72631) - https://sketchapp.com -->
    <title>$</title>
    <desc>Created with Sketch.</desc>
    <g id="new-final" stroke="none" stroke-width="1" fill="none" fill-rule="evenodd" opacity="0.5">
        <g id="pricing-page-3" transform="translate(-231.000000, -251.000000)" fill="#FFFFFF" fill-rule="nonzero">
            <g id="Group-7" transform="translate(230.000000, 246.000000)">
                <g id="Group-6">
                    <g id="Group-5">
                        <path d="M12.32,38.55 L8.505,38.55 L8.505,34.385 C5.915,34.14 3.43,33.405 1.47,32.285 L1.47,27.28 C4.27,29.135 7.455,29.87 10.255,29.87 C13.125,29.87 14.7,29.275 14.7,27.525 C14.7,22.94 1.61,25.355 1.61,16.675 C1.61,12.545 4.55,10.34 8.505,9.815 L8.505,5.65 L12.32,5.65 L12.32,9.85 C14.63,10.06 16.905,10.69 18.515,11.6 L18.515,16.5 C16.45,15.03 13.685,14.295 10.955,14.33 C8.295,14.365 6.965,15.1 6.965,16.605 C6.965,20.84 20.09,18.565 20.09,27.28 C20.09,32.145 16.66,34.07 12.32,34.42 L12.32,38.55 Z" id="$"></path>
                    </g>
                </g>
            </g>
        </g>
    </g>
</svg>