<?xml version="1.0" encoding="UTF-8"?>
<svg width="25px" height="12px" viewBox="0 0 25 12" version="1.1" xmlns="http://www.w3.org/2000/svg" xmlns:xlink="http://www.w3.org/1999/xlink">
    <!-- Generator: Sketch 52.5 (67469) - http://www.bohemiancoding.com/sketch -->
    <title>Combined Shape</title>
    <desc>Created with Sketch.</desc>
    <defs>
        <linearGradient x1="100%" y1="2.7281746%" x2="3.84397645%" y2="95.6845238%" id="linearGradient-1">
            <stop stop-color="#6F58ED" offset="0%"></stop>
            <stop stop-color="#AEA2F2" offset="100%"></stop>
        </linearGradient>
    </defs>
    <g id="new-final" stroke="none" stroke-width="1" fill="none" fill-rule="evenodd">
        <g id="create-account-all-filled" transform="translate(-311.000000, -551.000000)" fill="url(#linearGradient-1)">
            <path d="M329.534378,557.118178 C329.58734,557.170057 329.635324,557.228676 329.677029,557.293751 L331.279243,559.79375 C331.577246,560.258737 331.441879,560.877262 330.976893,561.175265 C330.511906,561.473269 329.893381,561.337902 329.595377,560.872915 L327.993164,558.372916 C327.983362,558.357621 327.974028,558.34216 327.96516,558.32655 C326.893489,558.993847 325.737801,559.414478 324.5,559.582739 L324.5,562 C324.5,562.552285 324.052285,563 323.5,563 C322.947715,563 322.5,562.552285 322.5,562 L322.5,559.638248 C321.310155,559.545736 320.193231,559.227677 319.150827,558.688869 L317.751103,560.872915 C317.4531,561.337902 316.834575,561.473269 316.369588,561.175265 C315.904602,560.877262 315.769235,560.258737 316.067238,559.79375 L317.481824,557.586514 C316.698088,556.946859 315.964711,556.161568 315.282567,555.233259 L313.114078,556.670081 C312.653685,556.975134 312.033169,556.849205 311.728117,556.388813 C311.423064,555.92842 311.548992,555.307904 312.009385,555.002852 L314.193973,553.555362 C314.013148,553.24107 313.836653,552.914927 313.664508,552.576997 C313.41382,552.084885 313.609534,551.482727 314.101646,551.23204 C314.593758,550.981352 315.195916,551.177066 315.446603,551.669178 C317.511819,555.723306 320.090878,557.666667 323.239619,557.666667 C326.388361,557.666666 328.96742,555.723305 331.032636,551.669178 C331.283323,551.177066 331.885481,550.981352 332.377593,551.23204 C332.869705,551.482727 333.065419,552.084885 332.814731,552.576997 C332.697996,552.806154 332.579261,553.02989 332.458532,553.248187 C332.544346,553.275633 332.627855,553.315225 332.70667,553.367447 L335.174864,555.002852 C335.635257,555.307904 335.761185,555.92842 335.456132,556.388813 C335.15108,556.849205 334.530564,556.975134 334.070171,556.670081 L331.601978,555.034677 C331.540909,554.994213 331.485725,554.948199 331.436652,554.897745 C330.8427,555.750645 330.208406,556.491397 329.534378,557.118178 Z" id="Combined-Shape"></path>
        </g>
    </g>
</svg>