<?xml version="1.0" encoding="UTF-8"?>
<svg width="23px" height="19px" viewBox="0 0 23 19" version="1.1" xmlns="http://www.w3.org/2000/svg" xmlns:xlink="http://www.w3.org/1999/xlink">
    <!-- Generator: Sketch 52.5 (67469) - http://www.bohemiancoding.com/sketch -->
    <title>Group 2</title>
    <desc>Created with Sketch.</desc>
    <defs>
        <linearGradient x1="100%" y1="2.7281746%" x2="3.84397645%" y2="95.6845238%" id="linearGradient-1">
            <stop stop-color="#6F58ED" offset="0%"></stop>
            <stop stop-color="#AEA2F2" offset="100%"></stop>
        </linearGradient>
    </defs>
    <g id="Page-1" stroke="none" stroke-width="1" fill="none" fill-rule="evenodd">
        <g id="create-account-all-filled" transform="translate(-314.000000, -544.000000)" fill="url(#linearGradient-1)">
            <g id="Group-2" transform="translate(314.000000, 544.000000)">
                <path d="M11.2541524,16.1810214 C15.1735146,16.141322 18.193495,13.7778243 20.3140938,9.09052826 C18.0392823,4.35298911 15.0193018,1.98949139 11.2541524,2.00003512 C7.48900293,2.01057885 4.40428548,4.37407656 2,9.09052826 C4.25007272,13.8572231 7.33479018,16.2207208 11.2541524,16.1810214 Z M11.2744094,18.1809188 C6.49063115,18.2293739 2.74903584,15.3625791 0.191375781,9.94427204 C-0.0728932297,9.38442804 -0.0630027096,8.7337605 0.218160176,8.18220737 C2.93436093,2.85387604 6.64220363,0.0129423404 11.2485517,4.29624643e-05 C15.8776685,-0.012920176 19.5364606,2.85052438 22.1170222,8.22482095 C22.372874,8.75765981 22.3799266,9.37638174 22.136287,9.91491412 C19.718203,15.2597608 16.047442,18.1325726 11.2744094,18.1809188 Z" id="Oval-17"></path>
                <path d="M11.2,11 C12.3045695,11 13.2,10.1045695 13.2,9 C13.2,7.8954305 12.3045695,7 11.2,7 C10.0954305,7 9.2,7.8954305 9.2,9 C9.2,10.1045695 10.0954305,11 11.2,11 Z M11.2,13 C8.990861,13 7.2,11.209139 7.2,9 C7.2,6.790861 8.990861,5 11.2,5 C13.409139,5 15.2,6.790861 15.2,9 C15.2,11.209139 13.409139,13 11.2,13 Z" id="Oval-18"></path>
            </g>
        </g>
    </g>
</svg>