<svg xmlns="http://www.w3.org/2000/svg" width="50" height="50" viewBox="0 0 50 50">
    <g fill="none" fill-rule="evenodd">
        <path fill="#DA1F3D" d="M0 0h50v47a3 3 0 0 1-3 3H0V0z"/>
        <g fill="#FFF">
            <path d="M13.127 35.831a1.714 1.714 0 0 0 2.194-1.02l6.392-17.52a1.708 1.708 0 0 0-1.023-2.188 1.717 1.717 0 0 0-2.194 1.02l-6.392 17.52c-.156.428-.136.892.057 1.306.193.413.536.727.966.882M20.697 34.949a1.716 1.716 0 0 0 3.16-.138l6.392-17.519a1.709 1.709 0 0 0-1.023-2.19 1.716 1.716 0 0 0-2.194 1.022L20.64 33.643c-.156.428-.136.892.057 1.306M29.233 34.949a1.711 1.711 0 0 0 3.16-.138l6.392-17.519a1.709 1.709 0 0 0-1.023-2.19 1.716 1.716 0 0 0-2.194 1.022l-6.392 17.519c-.156.428-.136.892.057 1.306"/>
        </g>
    </g>
</svg>
