<svg width="22" height="18" viewBox="0 0 22 18" fill="none" xmlns="http://www.w3.org/2000/svg">
<rect x="2" y="18" width="18" height="2" rx="1" transform="rotate(-90 2 18)" fill="white"/>
<rect x="18" y="18" width="18" height="2" rx="1" transform="rotate(-90 18 18)" fill="white"/>
<rect x="10" y="18" width="18" height="2" rx="1" transform="rotate(-90 10 18)" fill="white"/>
<path fill-rule="evenodd" clip-rule="evenodd" d="M11 7C12.1046 7 13 6.10457 13 5C13 3.89543 12.1046 3 11 3C9.89543 3 9 3.89543 9 5C9 6.10457 9.89543 7 11 7Z" fill="black" stroke="white"/>
<path fill-rule="evenodd" clip-rule="evenodd" d="M3 15C4.10457 15 5 14.1046 5 13C5 11.8954 4.10457 11 3 11C1.89543 11 1 11.8954 1 13C1 14.1046 1.89543 15 3 15Z" fill="black" stroke="white"/>
<path fill-rule="evenodd" clip-rule="evenodd" d="M19 12C20.1046 12 21 11.1046 21 10C21 8.89543 20.1046 8 19 8C17.8954 8 17 8.89543 17 10C17 11.1046 17.8954 12 19 12Z" fill="black" stroke="white"/>
</svg>
